<svg id="Layer_1" data-name="Layer 1" xmlns="http://www.w3.org/2000/svg" viewBox="0 0 198.42 198.42"><defs><style>.cls-1{fill:#fb8a24;}.cls-2{fill:#ba6017;}.cls-3{fill:#efb284;}</style></defs><title>bm-bad</title><circle class="cls-1" cx="99.21" cy="99.21" r="93.21"/><path class="cls-2" d="M99.21,6A93.21,93.21,0,1,1,6,99.21,93.21,93.21,0,0,1,99.21,6m0-6a99.21,99.21,0,1,0,99.21,99.21A99.32,99.32,0,0,0,99.21,0Z"/><path class="cls-3" d="M34.54,136.42c-8.88-10.25-14-24-14.79-38.11a73,73,0,0,1,9.9-41.08A74.74,74.74,0,0,1,43,40.49,72.4,72.4,0,0,1,60.55,28.41a68.15,68.15,0,0,1,20-6.26c.85-.15,1.73-.2,2.58-.31s1.71-.22,2.58-.24c1.73-.07,3.44-.19,5.16-.11A55.4,55.4,0,0,1,101,22.59a112.19,112.19,0,0,0-18.86,5.58A87.25,87.25,0,0,0,65.52,37a84.38,84.38,0,0,0-14,12,78,78,0,0,0-5.86,7c-1,1.19-1.77,2.48-2.66,3.71s-1.67,2.55-2.38,3.89A81.65,81.65,0,0,0,29.68,98.38,95.26,95.26,0,0,0,34.54,136.42Z"/><path class="cls-2" d="M163.88,62c8.88,10.25,14,24,14.79,38.11a73,73,0,0,1-9.9,41.08,74.74,74.74,0,0,1-13.37,16.75A72.4,72.4,0,0,1,137.88,170a68.15,68.15,0,0,1-20,6.26c-.85.15-1.73.2-2.58.31s-1.71.22-2.58.24c-1.73.07-3.44.19-5.16.11a55.41,55.41,0,0,1-10.14-1.09,112.19,112.19,0,0,0,18.86-5.58,87.25,87.25,0,0,0,16.64-8.88,84.37,84.37,0,0,0,14-12,78,78,0,0,0,5.86-7c1-1.19,1.77-2.48,2.66-3.71s1.67-2.55,2.38-3.89A81.65,81.65,0,0,0,168.74,100,95.26,95.26,0,0,0,163.88,62Z"/><path d="M58.31,79c12.7-.67,11.8,24.5,0,26.32S49.69,79.46,58.31,79Z"/><path d="M138.63,79c12.7-.67,11.8,24.5,0,26.32S130,79.46,138.63,79Z"/><path d="M131.19,144.33s1.21-30.77-30.77-30.77-33.18,32-33.18,32S100.42,132.87,131.19,144.33Z"/><path d="M72.63,85.21a2.72,2.72,0,0,1-.92-.16c-23.52-8.47-28.56-21-28.76-21.49a2.72,2.72,0,0,1,5.06-2c.09.21,4.72,10.85,25.54,18.35a2.72,2.72,0,0,1-.92,5.27Z"/><path d="M125.79,85.21a2.72,2.72,0,0,1-.92-5.27c21.21-7.64,25.49-18.22,25.53-18.33a2.72,2.72,0,1,1,5.07,1.95c-.2.53-5.24,13-28.76,21.49A2.72,2.72,0,0,1,125.79,85.21Z"/></svg>