<svg id="Layer_1" data-name="Layer 1" xmlns="http://www.w3.org/2000/svg" viewBox="0 0 198.42 198.42"><defs><style>.cls-1{fill:#8de823;}.cls-2{fill:#589b0a;}.cls-3{fill:#c2e88b;}</style></defs><title>bm-good</title><circle class="cls-1" cx="99.21" cy="99.21" r="93.21"/><path class="cls-2" d="M99.21,6A93.21,93.21,0,1,1,6,99.21,93.21,93.21,0,0,1,99.21,6m0-6a99.21,99.21,0,1,0,99.21,99.21A99.32,99.32,0,0,0,99.21,0Z"/><path class="cls-3" d="M32.73,136.72c-8.88-10.25-14-24-14.79-38.11a73,73,0,0,1,9.9-41.08A74.74,74.74,0,0,1,41.22,40.79,72.4,72.4,0,0,1,58.74,28.71a68.15,68.15,0,0,1,20-6.26c.85-.15,1.73-.2,2.58-.31s1.71-.22,2.58-.24c1.73-.07,3.44-.19,5.16-.11a55.4,55.4,0,0,1,10.14,1.09,112.19,112.19,0,0,0-18.86,5.58,87.24,87.24,0,0,0-16.64,8.88,84.38,84.38,0,0,0-14,12,77.94,77.94,0,0,0-5.86,7c-1,1.19-1.77,2.48-2.66,3.71s-1.67,2.55-2.38,3.89A81.65,81.65,0,0,0,27.87,98.68,95.26,95.26,0,0,0,32.73,136.72Z"/><path class="cls-2" d="M162.07,62.31c8.88,10.25,14,24,14.79,38.11a73,73,0,0,1-9.9,41.08,74.74,74.74,0,0,1-13.37,16.75,72.4,72.4,0,0,1-17.52,12.07,68.15,68.15,0,0,1-20,6.26c-.85.15-1.73.2-2.58.31s-1.71.22-2.58.24c-1.73.07-3.44.19-5.16.11a55.41,55.41,0,0,1-10.14-1.09,112.18,112.18,0,0,0,18.86-5.58,87.25,87.25,0,0,0,16.64-8.88,84.38,84.38,0,0,0,14-12,77.94,77.94,0,0,0,5.86-7c1-1.19,1.77-2.48,2.66-3.71s1.67-2.55,2.38-3.89a81.65,81.65,0,0,0,10.91-34.75A95.26,95.26,0,0,0,162.07,62.31Z"/><path d="M58.31,73.1c12.7-.67,11.8,24.5,0,26.32S49.69,73.55,58.31,73.1Z"/><path d="M138.63,73.1c12.7-.67,11.8,24.5,0,26.32S130,73.55,138.63,73.1Z"/><path d="M102.45,147.69c-1.15,0-2.26,0-3.32-.12-16.33-1.14-32.52-10.69-41.22-24.34a2.72,2.72,0,0,1,4.58-2.92c7.7,12.06,22.57,20.83,37,21.84,9.63.67,23.82-1.68,36.67-16.7A2.72,2.72,0,0,1,140.3,129C127.38,144.09,113.11,147.69,102.45,147.69Z"/></svg>