<svg id="Layer_1" data-name="Layer 1" xmlns="http://www.w3.org/2000/svg" viewBox="0 0 198.42 198.42"><defs><style>.cls-1{fill:#919191;}.cls-2{fill:#666665;}.cls-3{fill:#b2b2b2;}</style></defs><title>bm-terrible_hover</title><circle class="cls-1" cx="99.21" cy="99.21" r="93.21"/><path class="cls-2" d="M99.21,6A93.21,93.21,0,1,1,6,99.21,93.21,93.21,0,0,1,99.21,6m0-6a99.21,99.21,0,1,0,99.21,99.21A99.32,99.32,0,0,0,99.21,0Z"/><path class="cls-3" d="M34.54,136.42c-8.88-10.25-14-24-14.79-38.11a73,73,0,0,1,9.9-41.08A74.74,74.74,0,0,1,43,40.49,72.4,72.4,0,0,1,60.55,28.41a68.15,68.15,0,0,1,20-6.26c.85-.15,1.73-.2,2.58-.31s1.71-.22,2.58-.24c1.73-.07,3.44-.19,5.16-.11A55.4,55.4,0,0,1,101,22.59a112.18,112.18,0,0,0-18.86,5.58A87.25,87.25,0,0,0,65.52,37a84.38,84.38,0,0,0-14,12,78,78,0,0,0-5.86,7c-1,1.19-1.77,2.48-2.66,3.71s-1.67,2.55-2.38,3.89A81.65,81.65,0,0,0,29.68,98.38,95.26,95.26,0,0,0,34.54,136.42Z"/><path class="cls-2" d="M163.88,62c8.88,10.25,14,24,14.79,38.11a73,73,0,0,1-9.9,41.08,74.74,74.74,0,0,1-13.37,16.75A72.4,72.4,0,0,1,137.88,170a68.15,68.15,0,0,1-20,6.26c-.85.15-1.73.2-2.58.31s-1.71.22-2.58.24c-1.73.07-3.44.19-5.16.11a55.41,55.41,0,0,1-10.14-1.09,112.19,112.19,0,0,0,18.86-5.58,87.25,87.25,0,0,0,16.64-8.88,84.38,84.38,0,0,0,14-12,78,78,0,0,0,5.86-7c1-1.19,1.77-2.48,2.66-3.71s1.67-2.55,2.38-3.89A81.65,81.65,0,0,0,168.74,100,95.26,95.26,0,0,0,163.88,62Z"/><path d="M58.31,79c12.7-.67,11.8,24.5,0,26.32S49.69,79.46,58.31,79Z"/><path d="M138.63,79c12.7-.67,11.8,24.5,0,26.32S130,79.46,138.63,79Z"/><path d="M122.74,135a2.71,2.71,0,0,1-2.47-1.58c-3.54-7.67-8.76-12.1-15.51-13.18-10.06-1.6-20.85,4.46-27.09,11.17a2.71,2.71,0,0,1-4-3.69c7.22-7.77,19.89-14.76,31.92-12.84,5.95.95,14.18,4.54,19.59,16.26a2.72,2.72,0,0,1-2.46,3.85Z"/><path d="M97.49,86.49c-27.41,0-49.61-7.62-60.45-19.35a2.71,2.71,0,1,1,4-3.68C57.82,81.63,107.47,89,158.41,69.1a2.71,2.71,0,0,1,2,5.06A174.67,174.67,0,0,1,97.49,86.49Z"/></svg>