<svg id="Layer_1" data-name="Layer 1" xmlns="http://www.w3.org/2000/svg" viewBox="0 0 198.42 198.42"><defs><style>.cls-1{fill:#0da308;}.cls-2{fill:#096803;}.cls-3{fill:#b0efa5;}</style></defs><title>bm-great</title><circle class="cls-1" cx="99.21" cy="99.21" r="93.21"/><path class="cls-2" d="M99.21,6A93.21,93.21,0,1,1,6,99.21,93.21,93.21,0,0,1,99.21,6m0-6a99.21,99.21,0,1,0,99.21,99.21A99.32,99.32,0,0,0,99.21,0Z"/><path class="cls-3" d="M34.54,136.42c-8.88-10.25-14-24-14.79-38.11a73,73,0,0,1,9.9-41.08A74.74,74.74,0,0,1,43,40.49,72.4,72.4,0,0,1,60.55,28.41a68.15,68.15,0,0,1,20-6.26c.85-.15,1.73-.2,2.58-.31s1.71-.22,2.58-.24c1.73-.07,3.44-.19,5.16-.11A55.41,55.41,0,0,1,101,22.59a112.19,112.19,0,0,0-18.86,5.58A87.24,87.24,0,0,0,65.52,37a84.37,84.37,0,0,0-14,12,77.94,77.94,0,0,0-5.86,7c-1,1.19-1.77,2.48-2.66,3.71s-1.67,2.55-2.38,3.89A81.66,81.66,0,0,0,29.68,98.38,95.26,95.26,0,0,0,34.54,136.42Z"/><path class="cls-2" d="M163.88,62c8.88,10.25,14,24,14.79,38.11a73,73,0,0,1-9.9,41.08,74.75,74.75,0,0,1-13.37,16.75A72.4,72.4,0,0,1,137.88,170a68.15,68.15,0,0,1-20,6.26c-.85.15-1.73.2-2.58.31s-1.71.22-2.58.24c-1.73.07-3.44.19-5.16.11a55.4,55.4,0,0,1-10.14-1.09,112.19,112.19,0,0,0,18.86-5.58,87.25,87.25,0,0,0,16.64-8.88,84.38,84.38,0,0,0,14-12,77.94,77.94,0,0,0,5.86-7c1-1.19,1.77-2.48,2.66-3.71s1.67-2.55,2.38-3.89A81.66,81.66,0,0,0,168.74,100,95.26,95.26,0,0,0,163.88,62Z"/><path d="M76.36,88.35a2.71,2.71,0,0,1-2.46-1.57c-3.12-6.68-7.68-10.63-13.18-11.41-6.66-1-14.49,2.88-20.93,10.24A2.71,2.71,0,1,1,35.71,82c7.76-8.88,17.16-13.27,25.78-12,5.17.73,12.37,3.84,17.34,14.49a2.71,2.71,0,0,1-2.46,3.86Z"/><path d="M122.06,88.35a2.71,2.71,0,0,1-2.46-3.86c5-10.65,12.17-13.76,17.34-14.49,8.6-1.22,18,3.16,25.78,12a2.71,2.71,0,1,1-4.09,3.58c-6.44-7.36-14.26-11.19-20.93-10.24-5.51.78-10.06,4.73-13.18,11.41A2.72,2.72,0,0,1,122.06,88.35Z"/><path d="M64.52,123.34s4.22,30.77,36.2,30.77,33.18-32,33.18-32S95.29,134.81,64.52,123.34Z"/></svg>